HIERARCHY
ROOT Bip001_Pelvis
{
  OFFSET 34.4345 95.6767 -26.8758
  CHANNELS 6 Xposition Yposition Zposition Zrotation Xrotation Yrotation
  JOINT Bip001_Spine
  {
    OFFSET 1.4188e-005 10.2191 -0.0116013
    CHANNELS 3 Zrotation Xrotation Yrotation
    JOINT Bip001_L_Thigh
    {
      OFFSET 11.0458 -10.2192 0.0116197
      CHANNELS 3 Zrotation Xrotation Yrotation
      JOINT Bip001_L_Calf
      {
        OFFSET -0.707118 -44.0221 0.360014
        CHANNELS 3 Zrotation Xrotation Yrotation
        JOINT Bip001_L_Foot
        {
          OFFSET -0.651902 -40.5938 -3.56146
          CHANNELS 3 Zrotation Xrotation Yrotation
          JOINT Bip001_L_Toe0
          {
            OFFSET 0.0530839 -10.2181 13.1504
            CHANNELS 3 Zrotation Xrotation Yrotation
            End Site
            {
              OFFSET -1.02532e-005 0 7.55606
            }
          }
        }
      }
    }
    JOINT Bip001_R_Thigh
    {
      OFFSET -11.0458 -10.2191 0.0115893
      CHANNELS 3 Zrotation Xrotation Yrotation
      JOINT Bip001_R_Calf
      {
        OFFSET 0.706994 -44.0221 0.35984
        CHANNELS 3 Zrotation Xrotation Yrotation
        JOINT Bip001_R_Foot
        {
          OFFSET 0.651786 -40.5938 -3.5613
          CHANNELS 3 Zrotation Xrotation Yrotation
          JOINT Bip001_R_Toe0
          {
            OFFSET -0.0531479 -10.2181 13.1504
            CHANNELS 3 Zrotation Xrotation Yrotation
            End Site
            {
              OFFSET -1.02894e-005 0 7.55606
            }
          }
        }
      }
    }
    JOINT Bip001_Spine1
    {
      OFFSET 1.87041e-005 14.5736 1.08638
      CHANNELS 3 Zrotation Xrotation Yrotation
      JOINT Bip001_Spine2
      {
        OFFSET 2.24614e-005 14.5058 -1.69078
        CHANNELS 3 Zrotation Xrotation Yrotation
        JOINT Bip001_Neck
        {
          OFFSET 2.20278e-005 15.3945 -0.489414
          CHANNELS 3 Zrotation Xrotation Yrotation
          JOINT Bip001_L_Clavicle
          {
            OFFSET 6.06036 -0.000579998 0.00836775
            CHANNELS 3 Zrotation Xrotation Yrotation
            JOINT Bip001_L_UpperArm
            {
              OFFSET 11.5509 -0.0600302 0.00193952
              CHANNELS 3 Zrotation Xrotation Yrotation
              JOINT Bip001_L_Forearm
              {
                OFFSET 25.9523 0.0806089 -2.15551
                CHANNELS 3 Zrotation Xrotation Yrotation
                JOINT Bip001_L_Hand
                {
                  OFFSET 32.2475 0.153767 1.63968
                  CHANNELS 3 Zrotation Xrotation Yrotation
                  JOINT Bip001_L_Finger0
                  {
                    OFFSET 6.04639 -2.20976 5.90322
                    CHANNELS 3 Zrotation Xrotation Yrotation
                    End Site
                    {
                      OFFSET 4.22375 -1.43895 0.606485
                    }
                  }
                  JOINT Bip001_L_Finger1
                  {
                    OFFSET 11.0826 -0.704819 -0.198153
                    CHANNELS 3 Zrotation Xrotation Yrotation
                    End Site
                    {
                      OFFSET 6.20027 -0.397518 -0.0787166
                    }
                  }
                }
              }
            }
          }
          JOINT Bip001_R_Clavicle
          {
            OFFSET -6.06037 -0.000563197 0.00835105
            CHANNELS 3 Zrotation Xrotation Yrotation
            JOINT Bip001_R_UpperArm
            {
              OFFSET -11.5509 -0.0599978 0.00190698
              CHANNELS 3 Zrotation Xrotation Yrotation
              JOINT Bip001_R_Forearm
              {
                OFFSET -25.9523 0.0806822 -2.15589
                CHANNELS 3 Zrotation Xrotation Yrotation
                JOINT Bip001_R_Hand
                {
                  OFFSET -32.2475 0.153859 1.63989
                  CHANNELS 3 Zrotation Xrotation Yrotation
                  JOINT Bip001_R_Finger0
                  {
                    OFFSET -6.04641 -2.20976 5.90317
                    CHANNELS 3 Zrotation Xrotation Yrotation
                    End Site
                    {
                      OFFSET -4.22376 -1.43895 0.60647
                    }
                  }
                  JOINT Bip001_R_Finger1
                  {
                    OFFSET -11.0826 -0.704794 -0.198182
                    CHANNELS 3 Zrotation Xrotation Yrotation
                    End Site
                    {
                      OFFSET -6.20028 -0.397504 -0.0787333
                    }
                  }
                }
              }
            }
          }
          JOINT Bip001_Head
          {
            OFFSET 1.09673e-005 11.2744 2.05948
            CHANNELS 3 Zrotation Xrotation Yrotation
            End Site
            {
              OFFSET 2.89576e-005 20.8808 -2.77728e-005
            }
          }
        }
      }
    }
  }
}
MOTION
Frames:	5
Frame Time:	0.04
40.9845 90.5771 -28.7903 -2.85981 -10.204 4.44441 0.158797 3.74912 0.266555 8.72739 -8.7068 7.37434 -5.67091 40.2774 1.8992 8.30051 -22.5205 1.26665 1.74215 -4.06903 -1.43086 -7.93062 -3.47261 -2.1774 3.82159 31.6081 -0.440257 -12.5448 -11.8301 -9.42225 5.6052 -16.6263 5.33497 0.301005 7.49894 0.524373 0.301008 7.49895 0.524373 0.12903 -6.4261 -8.32316 -19.8284 7.01375 -1.14192 -53.4512 43.3278 9.02979 15.1731 -4.55737 -28.0792 8.93148 0.642704 -2.71105 -3.18055e-015 0 1.59028e-015 8.82782e-032 -3.18056e-015 1.59028e-015 15.2212 15.5309 32.236 66.4683 -49.5807 46.9503 -0.957093 -29.2271 68.3248 -15.4234 -14.4621 1.70596 -6.36111e-015 -1.59028e-014 -3.18055e-015 -9.54166e-015 -1.27222e-014 -6.36111e-015 -4.21366 2.33346 -6.95274 
40.7968 91.4781 -28.6867 -2.64281 -9.64461 6.38079 0.120713 3.49776 0.113724 8.34158 -8.04485 8.04648 -3.64561 37.4157 -1.22491 7.45414 -20.9875 1.04873 1.81927 -3.87331 -1.63892 -7.28529 -1.36898 -2.69143 3.24967 27.519 -0.293652 -11.8219 -10.0711 -9.95167 5.45596 -16.2056 5.09457 0.235121 6.99572 0.220652 0.235122 6.99573 0.220651 1.98509 -7.06454 -9.73593 -21.619 6.87201 0.0315248 -55.4411 44.7805 10.6025 15.3669 -3.48129 -26.4747 8.92044 0.701717 -2.41822 -1.27222e-014 0 -4.77083e-015 -1.27222e-014 3.18056e-015 -4.77083e-015 14.192 15.7635 29.4351 50.175 -48.2638 29.751 -1.77051 -26.7282 68.1396 -17.9833 -14.4087 1.56697 3.53112e-031 6.36111e-015 -3.18055e-015 5.29669e-031 6.36111e-015 -4.77083e-015 -5.46634 3.10515 -7.48416 
40.6789 92.3892 -28.6688 -2.15079 -8.97291 7.21582 0.091287 3.25873 0.0188991 7.50079 -6.8883 9.1982 -2.03841 33.7438 -3.55432 6.61685 -19.2202 0.854158 1.90013 -3.67963 -1.82657 -7.09835 0.262492 -3.01227 2.41455 23.5882 0.0711259 -10.9409 -8.40664 -10.0984 5.19096 -15.6088 4.93749 0.182818 6.51744 0.0325323 0.182821 6.51745 0.0325283 3.76937 -7.67854 -10.2409 -24.1323 6.9289 0.4829 -56.5642 45.8792 12.1733 15.3892 -2.53683 -25.3847 6.40985 0.764438 -2.06274 3.18055e-015 3.18055e-015 -1.59028e-015 8.82782e-032 3.18056e-015 -1.59028e-015 12.9683 16.1877 28.866 36.1911 -44.5111 12.5222 -5.42932 -24.2617 68.7933 -18.2954 -16.327 1.0787 0 0 -1.59028e-015 0 0 -0 -6.81827 3.52377 -7.22843 
40.417 93.2735 -28.6479 -2.01027 -8.36729 7.16261 0.0706027 3.08343 -0.161268 6.95206 -5.38975 9.70126 -1.40641 29.5532 -4.50566 7.12603 -16.4707 0.718834 1.99471 -4.3917 -1.81904 -6.50888 1.97539 -3.22059 1.28105 18.9617 0.388252 -9.88166 -6.664 -9.58405 4.92899 -14.9995 4.76605 0.156494 6.16659 -0.328029 0.154568 6.16661 -0.327884 3.15377 -8.61298 -9.79458 -23.5227 7.94105 1.00624 -57.5852 46.8228 12.6173 15.4135 -1.60566 -23.953 4.29457 0.937679 -1.61163 3.53112e-031 6.36111e-015 -3.18055e-015 3.18055e-015 9.54167e-015 -6.36111e-015 13.6255 17.2023 28.5326 28.3353 -39.1558 0.683945 -10.4303 -21.7799 65.7127 -19.0456 -15.4652 4.15662 3.18055e-015 -3.18055e-015 -3.18055e-015 -3.18055e-015 -4.77083e-015 -4.77083e-015 -5.62705 4.30404 -7.17123 
40.1871 94.0225 -28.6942 -1.72045 -7.64749 6.27891 -0.0425899 2.94058 -0.329419 6.07597 -3.90962 8.95308 -1.18857 25.3723 -3.18497 6.26445 -14.4826 0.51281 1.70827 -4.28391 -1.51831 -6.31327 3.11819 -3.60716 0.247025 14.8313 0.0252447 -8.60639 -5.39846 -7.77066 4.65801 -14.3946 4.65171 -0.0690373 5.88135 -0.65975 -0.0687546 5.88136 -0.658794 3.20981 -9.27698 -9.11 -22.8602 8.56605 1.76092 -57.8909 47.4436 11.5465 15.1523 -0.504242 -22.2419 3.27578 0.91642 -1.53387 -1.59028e-015 -9.54166e-015 3.18055e-015 -4.77083e-015 -9.54167e-015 1.59028e-015 13.5138 17.5082 27.3719 27.9562 -33.4247 -5.61202 -15.677 -18.2223 63.0945 -19.7752 -16.8101 3.87863 3.18055e-015 -9.14409e-015 -1.19271e-015 3.18055e-015 -5.56597e-015 -6.36111e-015 -4.62606 4.48067 -6.77515 
